<svg width="22" height="22" viewBox="0 0 22 22" fill="none" xmlns="http://www.w3.org/2000/svg">
<path d="M14.0233 8.65391L20.6953 10.6163C21.0781 10.7289 21.0781 11.2711 20.6953 11.3837L14.0233 13.3461C13.6971 13.442 13.442 13.6971 13.3461 14.0233L11.3837 20.6953C11.2711 21.0781 10.7289 21.0781 10.6163 20.6953L8.65391 14.0233C8.55797 13.6971 8.30289 13.442 7.97671 13.3461L1.30474 11.3837C0.921893 11.2711 0.921893 10.7289 1.30474 10.6163L7.97671 8.65391C8.30289 8.55797 8.55797 8.30289 8.65391 7.97671L10.6163 1.30474C10.7289 0.921893 11.2711 0.921893 11.3837 1.30474L13.3461 7.97671C13.442 8.30289 13.6971 8.55797 14.0233 8.65391Z" stroke="#1B2837"/>
<path d="M7.5 16.5L4.45957 17.803C4.29363 17.8742 4.12584 17.7064 4.19696 17.5404L5.5 14.5" stroke="#1B2837" stroke-linecap="round"/>
<path d="M14.5 5.5L17.5404 4.19696C17.7064 4.12584 17.8742 4.29363 17.803 4.45957L16.5 7.5" stroke="#1B2837" stroke-linecap="round"/>
<path d="M16.5 14.5L17.803 17.5404C17.8742 17.7064 17.7064 17.8742 17.5404 17.803L14.5 16.5" stroke="#1B2837" stroke-linecap="round"/>
<path d="M7.5 5.5L4.45957 4.19696C4.29363 4.12584 4.12584 4.29363 4.19696 4.45957L5.5 7.5" stroke="#1B2837" stroke-linecap="round"/>
</svg>
