<?xml version="1.0" encoding="utf-8"?>
<!-- Generator: Adobe Illustrator 26.3.1, SVG Export Plug-In . SVG Version: 6.00 Build 0)  -->
<svg version="1.1" id="Layer_1" xmlns="http://www.w3.org/2000/svg" xmlns:xlink="http://www.w3.org/1999/xlink" x="0px" y="0px"
	 viewBox="0 0 20 20" style="enable-background:new 0 0 20 20;" xml:space="preserve">
<g>
	<path d="M13.7,5.5H13V3c0-1.7-1.4-3-3-3C8.3,0,7,1.4,7,3v2.5H6.3c-1.2,0-2.2,1-2.2,2.2v8.8c0,1.2,1,2.2,2.2,2.2h0h0.3V19
		c0,0.6,0.5,1,1,1c0.6,0,1-0.5,1-1v-0.3h2.5V19c0,0.6,0.5,1,1,1c0.6,0,1-0.5,1-1v-0.3h0.3c1.2,0,2.2-1,2.2-2.2l0-8.8
		C15.9,6.5,14.9,5.5,13.7,5.5z M7.5,3c0-1.4,1.1-2.5,2.5-2.5s2.5,1.1,2.5,2.5v2.5h-0.7V3c0-1-0.8-1.8-1.8-1.8C9,1.2,8.2,2,8.2,3v2.5
		H7.5V3z M11.3,3L11.3,3l0,2.5l-2.6,0V3c0-0.7,0.6-1.3,1.3-1.3C10.7,1.7,11.3,2.3,11.3,3z M4.6,7.7C4.6,6.8,5.4,6,6.3,6h6
		c-0.5,0.4-0.8,1-0.8,1.7v3.1H4.6L4.6,7.7z M8.2,19c0,0.3-0.2,0.5-0.5,0.5c-0.3,0-0.5-0.2-0.5-0.5v-0.3h1.1V19z M6.3,18.2
		c-0.9,0-1.7-0.8-1.7-1.7l0-5.2h6.9v5.2c0,0.7,0.3,1.3,0.8,1.7H6.3z M12.3,19.5c-0.3,0-0.5-0.2-0.5-0.5v-0.3h1.1l0,0.3
		C12.8,19.3,12.6,19.5,12.3,19.5z M15.4,16.5c0,0.9-0.8,1.7-1.7,1.7c-0.9,0-1.7-0.8-1.7-1.7V7.7C12,6.8,12.7,6,13.7,6
		c0.9,0,1.7,0.8,1.7,1.7V16.5z"/>
	<path d="M9.2,8.8H6.9C6.8,8.8,6.7,9,6.7,9.1v1.1c0,0.1,0.1,0.2,0.2,0.2h2.3c0.1,0,0.2-0.1,0.2-0.2V9.1C9.5,9,9.4,8.8,9.2,8.8z
		 M9,9.9H7.2l0-0.6H9L9,9.9z"/>
</g>
</svg>
