<svg width="24" height="24" viewBox="0 0 24 24" fill="none" xmlns="http://www.w3.org/2000/svg">
<path d="M6.00006 15.1667V10C6.00006 6.68629 8.68635 4 12.0001 4C15.3138 4 18.0001 6.68629 18.0001 10V15.1667C18.0001 15.6913 18.247 16.1852 18.6667 16.5L19.3334 17C19.753 17.3148 20 17.8087 20 18.3333C20 19.2538 19.2538 20 18.3333 20H5.66673C4.74625 20 4.00006 19.2538 4.00006 18.3333C4.00006 17.8087 4.24705 17.3148 4.66673 17L5.33339 16.5C5.75307 16.1852 6.00006 15.6913 6.00006 15.1667Z" stroke="#1B2837"/>
<path d="M14 4C14 2.89543 13.1046 2 12 2C10.8954 2 10 2.89543 10 4" stroke="#1B2837"/>
<path d="M14 20C14 21.1046 13.1046 22 12 22C10.8954 22 10 21.1046 10 20" stroke="#1B2837"/>
</svg>
