<svg width="22" height="20" viewBox="0 0 22 20" fill="none" xmlns="http://www.w3.org/2000/svg">
<path d="M18 11C17.398 11.2089 16.0185 11.5 15 11.5L12.5 11.5L13.9114 18.5571C13.9572 18.7862 13.782 19 13.5483 19C12.8979 19 12.2953 18.6588 11.9607 18.1011L8 11.5L7 11.5L4.88854 11.5C3.64658 11.5 2.42168 11.2108 1.31084 10.6554L1.07331 10.5367C0.631083 10.3155 0.631083 9.68446 1.07331 9.46334L1.31083 9.34458C2.42168 8.78916 3.64658 8.5 4.88854 8.5L7 8.5L8 8.5L11.9607 1.89891C12.2953 1.34123 12.6773 0.999999 13.3277 0.999999C13.5614 0.999999 13.9572 1.21378 13.9114 1.44292L12.5 8.5L15 8.5C16.0185 8.5 17.398 8.79108 18 9L19.1193 7.13441C19.365 6.72503 19.749 6.41701 20.2019 6.26604L20.3087 6.23042C20.6082 6.13061 20.8998 6.4007 20.8233 6.70691L20 10L20.8233 13.2931C20.8998 13.5993 20.6082 13.8694 20.3087 13.7696L20.2019 13.734C19.749 13.583 19.365 13.275 19.1194 12.8656L18 11Z" stroke="#1B2837"/>
</svg>
