<svg width="22" height="22" viewBox="0 0 22 22" fill="none" xmlns="http://www.w3.org/2000/svg">
<path d="M21 21C20.9996 20.2539 20.783 19.5257 20.3789 18.9128C19.9749 18.3 19.4028 17.8316 18.7391 17.5705L14.3652 16.0238C14.2754 15.9921 14.1783 15.9921 14.0885 16.0238C13.9987 16.0555 13.9212 16.1173 13.8678 16.1996C13.5484 16.6907 13.1202 17.0924 12.6202 17.3699C12.1202 17.6475 11.5635 17.7926 10.9983 17.7926C10.4331 17.7926 9.87636 17.6475 9.37636 17.3699C8.87635 17.0924 8.44811 16.6907 8.1287 16.1996C8.07516 16.1174 7.99763 16.0559 7.90786 16.0243C7.81809 15.9928 7.72099 15.9929 7.6313 16.0247L3.26087 17.5705C2.59722 17.8316 2.02511 18.3 1.62107 18.9128C1.21704 19.5257 1.00035 20.2539 1 21" stroke="#1B2837" stroke-linecap="round" stroke-linejoin="round"/>
<path d="M5.91915 10.1863C4.92619 9.72576 4.67404 7.87699 5.47835 7.46542C4.84065 3.55115 7.27765 0.995042 11.0179 1.00319C14.7452 1.01132 17.1556 3.56862 16.5215 7.46542C17.3249 7.87699 17.0755 9.72388 16.0807 10.1863C15.9431 10.25 15.8229 10.3475 15.7308 10.47C15.6386 10.5926 15.5774 10.7364 15.5525 10.8889C15.1411 13.379 12.2809 14.9999 10.9999 14.9999C9.71892 14.9999 6.85506 13.379 6.44738 10.8889C6.42245 10.7364 6.36122 10.5926 6.26909 10.47C6.17697 10.3475 6.05679 10.25 5.91915 10.1863Z" stroke="#1B2837" stroke-linecap="round" stroke-linejoin="round"/>
</svg>
