<svg width="24" height="24" viewBox="0 0 24 24" fill="none" xmlns="http://www.w3.org/2000/svg">
<mask id="path-1-inside-1_153_324" fill="white">
<path fill-rule="evenodd" clip-rule="evenodd" d="M12.4853 2C13.3218 2 14 2.67815 14 3.5147C14 3.53751 14.0005 3.56013 14.0014 3.58255C14.0218 4.07831 14.4896 4.37869 14.9508 4.56179C15.0253 4.59137 15.0993 4.62204 15.1726 4.65378C15.6279 4.85066 16.1708 4.96931 16.5359 4.63356C16.5527 4.6181 16.5694 4.60216 16.5858 4.58573C17.1773 3.99419 18.1364 3.99418 18.7279 4.58572L19.4142 5.27199C20.0057 5.86353 20.0057 6.82262 19.4142 7.41417C19.3978 7.43056 19.3819 7.44715 19.3665 7.46393C19.0306 7.82901 19.1493 8.37202 19.3462 8.8273C19.3779 8.9007 19.4086 8.97466 19.4382 9.04917C19.6213 9.51037 19.9217 9.97829 20.4176 9.99862C20.4399 9.99954 20.4625 10 20.4853 10C21.3218 10 22 10.6782 22 11.5147V12.4853C22 13.3218 21.3218 14 20.4853 14C20.4625 14 20.4399 14.0005 20.4175 14.0014C19.9217 14.0217 19.6213 14.4896 19.4382 14.9508C19.4086 15.0253 19.378 15.0993 19.3462 15.1726C19.1493 15.6279 19.0307 16.1709 19.3665 16.536C19.3819 16.5528 19.3978 16.5693 19.4142 16.5857C20.0057 17.1772 20.0057 18.1363 19.4142 18.7278L18.7279 19.4141C18.1363 20.0056 17.1773 20.0056 16.5858 19.4141C16.5694 19.3978 16.5529 19.3819 16.5362 19.3665C16.1711 19.0306 15.628 19.1493 15.1727 19.3462C15.0993 19.3779 15.0254 19.4086 14.9509 19.4382C14.4896 19.6213 14.0217 19.9218 14.0014 20.4176C14.0005 20.44 14 20.4625 14 20.4852C14 21.3218 13.3218 22 12.4853 22H11.5147C10.6782 22 10 21.3218 10 20.4852C10 20.4625 9.99954 20.4399 9.99862 20.4176C9.97831 19.9218 9.51038 19.6213 9.04916 19.4382C8.97465 19.4086 8.9007 19.3779 8.82731 19.3462C8.372 19.1493 7.82895 19.0306 7.46387 19.3665C7.44713 19.3819 7.43057 19.3978 7.41422 19.4141C6.82268 20.0057 5.86362 20.0057 5.27209 19.4141L4.58577 18.7278C3.99425 18.1363 3.99425 17.1773 4.58577 16.5857C4.60217 16.5693 4.61808 16.5527 4.63352 16.536C4.96931 16.1709 4.85066 15.6279 4.65378 15.1726C4.62204 15.0993 4.59138 15.0253 4.5618 14.9508C4.37869 14.4896 4.07829 14.0217 3.58251 14.0014C3.56011 14.0005 3.5375 14 3.51471 14C2.67816 14 2 13.3218 2 12.4853V11.5147C2 10.6782 2.67817 10 3.51474 10C3.53751 10 3.56008 9.99953 3.58247 9.99862C4.07827 9.97828 4.37868 9.51037 4.5618 9.04918C4.59139 8.97466 4.62206 8.9007 4.6538 8.8273C4.85069 8.37203 4.96935 7.82903 4.63356 7.46395C4.61811 7.44716 4.60219 7.43055 4.58578 7.41415C3.99423 6.82259 3.99422 5.86348 4.58577 5.27193L5.27201 4.58568C5.86356 3.99414 6.82266 3.99416 7.4142 4.5857C7.43064 4.60215 7.44729 4.61811 7.46412 4.63359C7.8292 4.96931 8.37212 4.85065 8.82735 4.65378C8.90074 4.62204 8.9747 4.59137 9.04921 4.56179C9.51036 4.37869 9.97824 4.07832 9.99861 3.58257C9.99953 3.56014 10 3.53752 10 3.5147C10 2.67815 10.6782 2 11.5147 2H12.4853Z"/>
</mask>
<path d="M16.5858 4.58573L15.8787 3.87862L15.8787 3.87862L16.5858 4.58573ZM18.7279 4.58572L19.435 3.87861V3.87861L18.7279 4.58572ZM19.4142 5.27199L18.7071 5.97909L18.7071 5.97909L19.4142 5.27199ZM19.4142 7.41417L20.1213 8.12128V8.12128L19.4142 7.41417ZM19.4142 16.5857L20.1213 15.8786L20.1213 15.8786L19.4142 16.5857ZM16.5858 19.4141L17.2929 18.707H17.2929L16.5858 19.4141ZM7.41422 19.4141L6.70711 18.707L6.70711 18.707L7.41422 19.4141ZM5.27209 19.4141L4.56498 20.1213L4.56498 20.1213L5.27209 19.4141ZM4.58577 18.7278L5.29288 18.0207L5.29288 18.0207L4.58577 18.7278ZM4.58577 16.5857L3.87867 15.8786L4.58577 16.5857ZM4.58578 7.41415L3.87868 8.12125H3.87868L4.58578 7.41415ZM5.27201 4.58568L4.56491 3.87858L5.27201 4.58568ZM7.4142 4.5857L6.70709 5.29281V5.29281L7.4142 4.5857ZM9.04921 4.56179L8.68019 3.63237L9.04921 4.56179ZM9.99861 3.58257L8.99946 3.5415L9.99861 3.58257ZM3.58251 14.0014L3.54149 15.0005L3.58251 14.0014ZM8.82731 19.3462L9.22425 18.4284L8.82731 19.3462ZM7.46387 19.3665L8.14093 20.1024L7.46387 19.3665ZM19.4382 9.04917L18.5088 9.4182L19.4382 9.04917ZM20.4176 9.99862L20.4585 8.99946L20.4176 9.99862ZM4.63352 16.536L3.89752 15.859L4.63352 16.536ZM14.9509 19.4382L14.5818 18.5088L14.9509 19.4382ZM9.04916 19.4382L8.68013 20.3676L9.04916 19.4382ZM3.58247 9.99862L3.54149 8.99946L3.58247 9.99862ZM4.5618 9.04918L3.63238 8.68015L4.5618 9.04918ZM19.3462 15.1726L20.2641 15.5696L19.3462 15.1726ZM19.3665 16.536L20.1025 15.859L19.3665 16.536ZM20.4175 14.0014L20.3765 13.0022L20.4175 14.0014ZM19.4382 14.9508L18.5088 14.5818L19.4382 14.9508ZM16.5362 19.3665L17.2133 18.6306L16.5362 19.3665ZM15.1727 19.3462L14.7757 18.4284L15.1727 19.3462ZM19.3665 7.46393L20.1024 8.14092L19.3665 7.46393ZM19.3462 8.8273L18.4284 9.22424L19.3462 8.8273ZM14.0014 3.58255L13.0022 3.6236L14.0014 3.58255ZM15 3.5147C15 2.12587 13.8741 1 12.4853 1V3C12.7696 3 13 3.23044 13 3.5147H15ZM15.0005 3.5415C15.0002 3.53281 15 3.52388 15 3.5147H13C13 3.55114 13.0007 3.58744 13.0022 3.6236L15.0005 3.5415ZM14.5818 5.49121C14.6469 5.51707 14.7116 5.54388 14.7757 5.57163L15.5696 3.73593C15.487 3.70021 15.4037 3.66568 15.3198 3.63237L14.5818 5.49121ZM15.8787 3.87862C15.8721 3.88524 15.8655 3.89153 15.859 3.89751L17.2128 5.36962C17.24 5.34467 17.2666 5.31907 17.2929 5.29284L15.8787 3.87862ZM19.435 3.87861C18.453 2.89654 16.8607 2.89657 15.8787 3.87862L17.2929 5.29284C17.4939 5.09181 17.8198 5.09182 18.0208 5.29283L19.435 3.87861ZM20.1213 4.56488L19.435 3.87861L18.0208 5.29283L18.7071 5.97909L20.1213 4.56488ZM20.1213 8.12128C21.1034 7.13921 21.1034 5.54696 20.1213 4.56488L18.7071 5.97909C18.9081 6.18011 18.9081 6.50604 18.7071 6.70706L20.1213 8.12128ZM20.1024 8.14092C20.1084 8.13443 20.1147 8.12788 20.1213 8.12128L18.7071 6.70706C18.6809 6.73324 18.6554 6.75987 18.6305 6.78693L20.1024 8.14092ZM18.4284 9.22424C18.4561 9.28841 18.4829 9.35307 18.5088 9.4182L20.3676 8.68015C20.3343 8.59626 20.2998 8.51299 20.264 8.43037L18.4284 9.22424ZM20.4853 9C20.4761 9 20.4672 8.99981 20.4585 8.99946L20.3766 10.9978C20.4127 10.9993 20.4489 11 20.4853 11V9ZM23 11.5147C23 10.1259 21.8741 9 20.4853 9V11C20.7695 11 21 11.2305 21 11.5147H23ZM23 12.4853V11.5147H21V12.4853H23ZM20.4853 15C21.8741 15 23 13.8741 23 12.4853H21C21 12.7695 20.7696 13 20.4853 13V15ZM20.4585 15.0005C20.4672 15.0002 20.4761 15 20.4853 15V13C20.4489 13 20.4126 13.0007 20.3765 13.0022L20.4585 15.0005ZM18.5088 14.5818C18.4829 14.6469 18.4561 14.7116 18.4284 14.7757L20.2641 15.5696C20.2998 15.487 20.3343 15.4037 20.3676 15.3198L18.5088 14.5818ZM20.1213 15.8786C20.1147 15.872 20.1084 15.8655 20.1025 15.859L18.6305 17.213C18.6554 17.2401 18.6809 17.2667 18.7071 17.2928L20.1213 15.8786ZM20.1213 19.4349C21.1033 18.4528 21.1033 16.8606 20.1213 15.8786L18.7071 17.2928C18.9081 17.4938 18.9081 17.8197 18.7071 18.0207L20.1213 19.4349ZM19.435 20.1212L20.1213 19.4349L18.7071 18.0207L18.0207 18.707L19.435 20.1212ZM15.8786 20.1212C16.8607 21.1033 18.4529 21.1033 19.435 20.1212L18.0207 18.707C17.8197 18.908 17.4939 18.908 17.2929 18.707L15.8786 20.1212ZM15.8591 20.1024C15.8655 20.1084 15.8721 20.1146 15.8786 20.1212L17.2929 18.707C17.2668 18.6809 17.2402 18.6555 17.2133 18.6306L15.8591 20.1024ZM14.7757 18.4284C14.7116 18.4561 14.6469 18.4829 14.5818 18.5088L15.3199 20.3676C15.4038 20.3343 15.487 20.2998 15.5696 20.264L14.7757 18.4284ZM15 20.4852C15 20.4761 15.0002 20.4672 15.0005 20.4585L13.0022 20.3767C13.0007 20.4127 13 20.4489 13 20.4852H15ZM12.4853 23C13.8741 23 15 21.8741 15 20.4852H13C13 20.7695 12.7695 21 12.4853 21V23ZM11.5147 23H12.4853V21H11.5147V23ZM9 20.4852C9 21.8741 10.1259 23 11.5147 23V21C11.2305 21 11 20.7695 11 20.4852H9ZM8.99946 20.4585C8.99981 20.4672 9 20.4761 9 20.4852H11C11 20.4489 10.9993 20.4127 10.9978 20.3767L8.99946 20.4585ZM9.41819 18.5088C9.35306 18.4829 9.28841 18.4561 9.22425 18.4284L8.43038 20.264C8.51299 20.2998 8.59625 20.3343 8.68013 20.3676L9.41819 18.5088ZM8.12132 20.1213C8.12791 20.1147 8.13445 20.1084 8.14093 20.1024L6.78682 18.6306C6.75981 18.6554 6.73324 18.6809 6.70711 18.707L8.12132 20.1213ZM4.56498 20.1213C5.54704 21.1033 7.13927 21.1033 8.12133 20.1213L6.70711 18.707C6.5061 18.908 6.1802 18.908 5.97919 18.707L4.56498 20.1213ZM3.87867 19.4349L4.56498 20.1213L5.97919 18.707L5.29288 18.0207L3.87867 19.4349ZM3.87867 15.8786C2.89662 16.8607 2.89662 18.4529 3.87867 19.4349L5.29288 18.0207C5.09188 17.8197 5.09188 17.4938 5.29288 17.2928L3.87867 15.8786ZM3.89752 15.859C3.89154 15.8655 3.88527 15.872 3.87867 15.8786L5.29288 17.2928C5.31907 17.2667 5.34462 17.24 5.36952 17.2129L3.89752 15.859ZM5.57162 14.7757C5.54388 14.7116 5.51707 14.6469 5.49122 14.5818L3.63238 15.3198C3.66568 15.4037 3.7002 15.487 3.73593 15.5696L5.57162 14.7757ZM3.51471 15C3.52388 15 3.53281 15.0002 3.54149 15.0005L3.62354 13.0022C3.5874 13.0007 3.55112 13 3.51471 13V15ZM1 12.4853C1 13.8741 2.12588 15 3.51471 15V13C3.23044 13 3 12.7696 3 12.4853H1ZM1 11.5147V12.4853H3V11.5147H1ZM3.51474 9C2.12589 9 1 10.1259 1 11.5147H3C3 11.2305 3.23046 11 3.51474 11V9ZM3.54149 8.99946C3.53282 8.99981 3.5239 9 3.51474 9V11C3.55111 11 3.58735 10.9993 3.62344 10.9978L3.54149 8.99946ZM5.49122 9.4182C5.51708 9.35307 5.5439 9.28841 5.57165 9.22424L3.73596 8.43036C3.70022 8.51299 3.66569 8.59626 3.63238 8.68015L5.49122 9.4182ZM3.87868 8.12125C3.88528 8.12786 3.89157 8.13442 3.89754 8.14091L5.36958 6.78699C5.34466 6.7599 5.3191 6.73325 5.29289 6.70704L3.87868 8.12125ZM3.87866 4.56482C2.89657 5.54691 2.89661 7.13919 3.87868 8.12125L5.29289 6.70704C5.09185 6.506 5.09186 6.18005 5.29288 5.97903L3.87866 4.56482ZM4.56491 3.87858L3.87866 4.56482L5.29288 5.97903L5.97912 5.29279L4.56491 3.87858ZM8.1213 3.8786C7.13926 2.89655 5.54699 2.89649 4.56491 3.87858L5.97912 5.29279C6.18012 5.09179 6.50606 5.09178 6.70709 5.29281L8.1213 3.8786ZM8.14101 3.8975C8.1345 3.89151 8.12792 3.88522 8.1213 3.8786L6.70709 5.29281C6.73336 5.31908 6.76007 5.3447 6.78723 5.36967L8.14101 3.8975ZM9.22428 5.57163C9.28845 5.54388 9.3531 5.51707 9.41824 5.49121L8.68019 3.63237C8.5963 3.66567 8.51304 3.7002 8.43042 3.73593L9.22428 5.57163ZM9 3.5147C9 3.52388 8.99981 3.53282 8.99946 3.5415L10.9978 3.62363C10.9993 3.58746 11 3.55115 11 3.5147H9ZM11.5147 1C10.1259 1 9 2.12587 9 3.5147H11C11 3.23044 11.2304 3 11.5147 3V1ZM12.4853 1H11.5147V3H12.4853V1ZM9.41824 5.49121C9.70123 5.37885 10.0568 5.20479 10.3593 4.93166C10.6757 4.64606 10.9736 4.21143 10.9978 3.62363L8.99946 3.5415C9.00089 3.50665 9.01162 3.47182 9.02493 3.44696C9.03596 3.42635 9.0405 3.42783 9.01907 3.44718C8.99718 3.46694 8.95843 3.49606 8.89701 3.53079C8.83637 3.56508 8.76356 3.59927 8.68019 3.63237L9.41824 5.49121ZM5.57165 9.22424C5.69252 8.94474 5.8211 8.57035 5.84211 8.16336C5.86408 7.7378 5.76773 7.21987 5.36958 6.78699L3.89754 8.14091C3.87393 8.11524 3.85691 8.08301 3.84876 8.05602C3.842 8.03364 3.84625 8.03145 3.84477 8.06025C3.84325 8.08965 3.83642 8.13759 3.81752 8.20549C3.79886 8.27254 3.77153 8.34811 3.73596 8.43036L5.57165 9.22424ZM5.49122 14.5818C5.37885 14.2988 5.20478 13.9432 4.93163 13.6406C4.64601 13.3243 4.21136 13.0264 3.62354 13.0022L3.54149 15.0005C3.50664 14.9991 3.47181 14.9884 3.44695 14.9751C3.42635 14.964 3.42783 14.9595 3.44718 14.9809C3.46694 15.0028 3.49606 15.0416 3.53079 15.103C3.56509 15.1637 3.59928 15.2365 3.63238 15.3198L5.49122 14.5818ZM9.22425 18.4284C8.94472 18.3075 8.57029 18.1789 8.16327 18.1579C7.73766 18.1359 7.21969 18.2323 6.78682 18.6306L8.14093 20.1024C8.11525 20.1261 8.08302 20.1431 8.05603 20.1512C8.03363 20.158 8.03144 20.1538 8.06024 20.1552C8.08964 20.1568 8.13758 20.1636 8.20549 20.1825C8.27255 20.2011 8.34812 20.2285 8.43038 20.264L9.22425 18.4284ZM18.5088 9.4182C18.6212 9.70123 18.7952 10.0569 19.0684 10.3594C19.354 10.6757 19.7887 10.9737 20.3766 10.9978L20.4585 8.99946C20.4934 9.00089 20.5282 9.01161 20.5531 9.02492C20.5737 9.03595 20.5722 9.04049 20.5528 9.01906C20.5331 8.99717 20.5039 8.95841 20.4692 8.89699C20.4349 8.83633 20.4007 8.76352 20.3676 8.68015L18.5088 9.4182ZM5.36952 17.2129C5.76768 16.7801 5.86404 16.2621 5.84207 15.8366C5.82107 15.4296 5.69249 15.0552 5.57162 14.7757L3.73593 15.5696C3.7715 15.6518 3.79883 15.7274 3.81749 15.7944C3.83638 15.8623 3.84321 15.9103 3.84473 15.9397C3.84622 15.9685 3.84197 15.9663 3.84873 15.9439C3.85688 15.9169 3.8739 15.8847 3.89752 15.859L5.36952 17.2129ZM6.78723 5.36967C7.22011 5.76774 7.738 5.86405 8.16352 5.84207C8.57046 5.82105 8.94482 5.69249 9.22428 5.57163L8.43042 3.73593C8.34817 3.7715 8.27261 3.79883 8.20556 3.81749C8.13767 3.83638 8.08974 3.84322 8.06034 3.84474C8.03155 3.84622 8.03374 3.84197 8.05612 3.84873C8.08311 3.85687 8.11533 3.87389 8.14101 3.8975L6.78723 5.36967ZM14.5818 18.5088C14.2988 18.6212 13.9431 18.7953 13.6406 19.0684C13.3242 19.3541 13.0263 19.7888 13.0022 20.3767L15.0005 20.4585C14.9991 20.4934 14.9884 20.5282 14.9751 20.5531C14.9641 20.5737 14.9595 20.5722 14.9809 20.5528C15.0028 20.5331 15.0416 20.5039 15.103 20.4692C15.1637 20.4349 15.2365 20.4007 15.3199 20.3676L14.5818 18.5088ZM14.7757 5.57163C15.0552 5.69249 15.4296 5.82106 15.8365 5.84207C16.2621 5.86405 16.78 5.76772 17.2128 5.36962L15.859 3.89751C15.8847 3.8739 15.9169 3.85688 15.9439 3.84873C15.9663 3.84197 15.9685 3.84622 15.9397 3.84474C15.9103 3.84322 15.8623 3.83638 15.7944 3.81749C15.7274 3.79883 15.6518 3.7715 15.5696 3.73593L14.7757 5.57163ZM10.9978 20.3767C10.9737 19.7888 10.6758 19.3541 10.3594 19.0684C10.0569 18.7952 9.70123 18.6212 9.41819 18.5088L8.68013 20.3676C8.7635 20.4007 8.83632 20.4349 8.89698 20.4692C8.9584 20.5039 8.99716 20.5331 9.01905 20.5528C9.04049 20.5722 9.03595 20.5737 9.02492 20.5531C9.01161 20.5282 9.00089 20.4934 8.99946 20.4585L10.9978 20.3767ZM3.62344 10.9978C4.21129 10.9737 4.64597 10.6757 4.9316 10.3594C5.20476 10.0569 5.37885 9.70123 5.49122 9.4182L3.63238 8.68015C3.59928 8.76352 3.56509 8.83634 3.53079 8.89699C3.49606 8.95841 3.46694 8.99717 3.44717 9.01906C3.42782 9.04049 3.42634 9.03595 3.44695 9.02492C3.47181 9.01161 3.50664 9.00089 3.54149 8.99946L3.62344 10.9978ZM18.4284 14.7757C18.3075 15.0552 18.1789 15.4296 18.1579 15.8366C18.136 16.2622 18.2323 16.7801 18.6305 17.213L20.1025 15.859C20.1261 15.8847 20.1431 15.9169 20.1513 15.9439C20.158 15.9663 20.1538 15.9685 20.1553 15.9397C20.1568 15.9103 20.1636 15.8623 20.1825 15.7944C20.2012 15.7274 20.2285 15.6518 20.2641 15.5696L18.4284 14.7757ZM20.3765 13.0022C19.7887 13.0264 19.354 13.3243 19.0684 13.6406C18.7952 13.9432 18.6212 14.2988 18.5088 14.5818L20.3676 15.3198C20.4007 15.2365 20.4349 15.1637 20.4692 15.103C20.5039 15.0416 20.5331 15.0028 20.5528 14.9809C20.5722 14.9595 20.5737 14.964 20.553 14.9751C20.5282 14.9884 20.4934 14.9991 20.4585 15.0005L20.3765 13.0022ZM17.2133 18.6306C16.7804 18.2324 16.2624 18.1359 15.8368 18.1579C15.4297 18.1789 15.0553 18.3075 14.7757 18.4284L15.5696 20.264C15.6519 20.2285 15.7274 20.2011 15.7945 20.1825C15.8624 20.1636 15.9104 20.1568 15.9398 20.1552C15.9686 20.1538 15.9664 20.158 15.944 20.1512C15.917 20.1431 15.8847 20.1261 15.8591 20.1024L17.2133 18.6306ZM18.6305 6.78693C18.2323 7.21981 18.1359 7.73776 18.1579 8.16333C18.1789 8.57033 18.3075 8.94473 18.4284 9.22424L20.264 8.43037C20.2285 8.34812 20.2011 8.27255 20.1825 8.20549C20.1636 8.13758 20.1567 8.08965 20.1552 8.06024C20.1537 8.03145 20.158 8.03364 20.1512 8.05603C20.1431 8.08302 20.1261 8.11525 20.1024 8.14092L18.6305 6.78693ZM13.0022 3.6236C13.0264 4.21141 13.3243 4.64604 13.6407 4.93165C13.9432 5.20478 14.2988 5.37885 14.5818 5.49121L15.3198 3.63237C15.2365 3.59927 15.1636 3.56509 15.103 3.53079C15.0416 3.49606 15.0028 3.46694 14.9809 3.44718C14.9595 3.42783 14.964 3.42635 14.9751 3.44696C14.9884 3.47181 14.9991 3.50664 15.0005 3.5415L13.0022 3.6236Z" fill="#1B2837" mask="url(#path-1-inside-1_153_324)"/>
<circle cx="12" cy="12" r="3.5" stroke="#1B2837"/>
</svg>
